HIERARCHY
ROOT RootJoint
{
    OFFSET   0.000000   0.000000   0.000000
    CHANNELS 6 Xposition Yposition Zposition Xrotation Yrotation Zrotation
    JOINT pelvis_lowerback
    {
        OFFSET   0.000000   0.093605   0.000000
        CHANNELS 3 Xrotation Yrotation Zrotation
        JOINT lowerback_torso
        {
            OFFSET   0.000000   0.100000   0.000000
            CHANNELS 3 Xrotation Yrotation Zrotation
            JOINT torso_head
            {
                OFFSET   0.000000   0.282350   0.000000
                CHANNELS 3 Xrotation Yrotation Zrotation
                End Site
                {
                    OFFSET   0.000000   0.192650   0.000000
                }
            }
            JOINT rTorso_Clavicle
            {
                OFFSET  -0.001000   0.157500   0.000000
                CHANNELS 3 Xrotation Yrotation Zrotation
                JOINT rShoulder
                {
                    OFFSET  -0.117647   0.000000   0.000000
                    CHANNELS 3 Xrotation Yrotation Zrotation
                    JOINT rElbow
                    {
                        OFFSET  -0.245000   0.000000   0.000000
                        CHANNELS 3 Xrotation Yrotation Zrotation
                        JOINT rWrist
                        {
                            OFFSET  -0.240000   0.000000   0.000000
                            CHANNELS 3 Xrotation Yrotation Zrotation
                            End Site
                            {
                                OFFSET  -0.116353  -0.002500   0.000000
                            }
                        }
                    }
                }
            }
            JOINT lTorso_Clavicle
            {
                OFFSET   0.001000   0.157500   0.000000
                CHANNELS 3 Xrotation Yrotation Zrotation
                JOINT lShoulder
                {
                    OFFSET   0.117647   0.000000   0.000000
                    CHANNELS 3 Xrotation Yrotation Zrotation
                    JOINT lElbow
                    {
                        OFFSET   0.245000   0.000000   0.000000
                        CHANNELS 3 Xrotation Yrotation Zrotation
                        JOINT lWrist
                        {
                            OFFSET   0.240000   0.000000   0.000000
                            CHANNELS 3 Xrotation Yrotation Zrotation
                            End Site
                            {
                                OFFSET   0.116353  -0.002500   0.000000
                            }
                        }
                    }
                }
            }
        }
    }
    JOINT rHip
    {
        OFFSET  -0.100000  -0.051395   0.000000
        CHANNELS 3 Xrotation Yrotation Zrotation
        JOINT rKnee
        {
            OFFSET   0.000000  -0.410000   0.000000
            CHANNELS 3 Xrotation Yrotation Zrotation
            JOINT rAnkle
            {
                OFFSET   0.000000  -0.390000   0.000000
                CHANNELS 3 Xrotation Yrotation Zrotation
                JOINT rToeJoint
                {
                    OFFSET   0.000000  -0.050000   0.130000
                    CHANNELS 3 Xrotation Yrotation Zrotation
                    End Site
                    {
                        OFFSET  -0.010000   0.002000   0.060000
                    }
                }
            }
        }
    }
    JOINT lHip
    {
        OFFSET   0.100000  -0.051395   0.000000
        CHANNELS 3 Xrotation Yrotation Zrotation
        JOINT lKnee
        {
            OFFSET   0.000000  -0.410000   0.000000
            CHANNELS 3 Xrotation Yrotation Zrotation
            JOINT lAnkle
            {
                OFFSET   0.000000  -0.390000   0.000000
                CHANNELS 3 Xrotation Yrotation Zrotation
                JOINT lToeJoint
                {
                    OFFSET   0.000000  -0.050000   0.130000
                    CHANNELS 3 Xrotation Yrotation Zrotation
                    End Site
                    {
                        OFFSET   0.010000   0.002000   0.060000
                    }
                }
            }
        }
    }
}
MOTION
Frames: 17
Frame Time:   0.008333
 -1.930045   0.893844   5.247638  15.963548  13.496583 -10.544966  64.019885   5.623159   3.065787   0.462481  -1.355412  -2.057880   2.779396   0.132325  -7.194147 -10.597000  41.618371  -8.756208 -39.218519  12.880226  16.785994  -0.005274  58.856011   0.000536  -4.900387   1.545080 -25.226911 -17.317474 -37.617312   0.496266 -32.593846 -14.319629 -23.568840  -0.013326 -58.088096  -0.015460  -2.647842  -4.988989  27.283555 -52.457588  -9.736758  -8.736686  63.538355   0.002022   0.000743   6.678556  -1.670027  10.038299  -7.516034   0.004514   0.004458 -40.365447   1.107041   6.350986  38.728140   0.000411   0.007899  -8.523809   2.563653   3.432368  -9.093662  -0.000176   0.000198
 -1.929638   0.895404   5.247930  16.096810  13.428292 -10.466566  63.765001   5.480674   2.908586   0.342382  -1.387830  -2.084835   2.779676  -0.038610  -7.125420 -10.604360  41.946867  -8.803251 -39.280224  13.163921  16.809167  -0.003994  58.543512   0.000520  -4.716574   1.588588 -25.439188 -17.356410 -37.623056   0.482852 -32.679832 -14.256525 -23.647909  -0.011835 -58.307013  -0.013651  -2.611464  -5.003881  27.510041 -52.292498  -9.417856  -8.661004  63.949628   0.002335   0.001161   6.505612  -1.620496   9.948613  -7.219912   0.004415   0.003904 -40.150118   1.055867   6.198029  38.089992   0.000516   0.007480  -8.063195   2.754050   3.411006  -9.333757  -0.000144   0.000223
 -1.929284   0.896756   5.248166  16.213045  13.346579 -10.382692  63.559190   5.342940   2.747779   0.226670  -1.411547  -2.123555   2.776691  -0.204388  -7.060530 -10.615385  42.301172  -8.866234 -39.349217  13.456370  16.834777  -0.003122  58.243459   0.000568  -4.566995   1.569194 -25.639649 -17.412782 -37.651723   0.475945 -32.773972 -14.211659 -23.714430  -0.010484 -58.508235  -0.012032  -2.591961  -4.986249  27.750071 -52.155756  -9.114683  -8.582387  64.351247   0.002470   0.001424   6.344772  -1.573861   9.864834  -6.950611   0.004176   0.003398 -39.967284   1.007128   6.056860  37.538872   0.000588   0.007003  -7.641189   2.948248   3.389441  -9.576624  -0.000112   0.000245
 -1.928987   0.897941   5.248374  16.323227  13.270059 -10.295160  63.386368   5.215451   2.592052   0.122705  -1.431371  -2.164211   2.775497  -0.359907  -6.999798 -10.625244  42.654410  -8.936046 -39.418112  13.745837  16.862415  -0.002575  57.967080   0.000660  -4.420956   1.556553 -25.819565 -17.474349 -37.695965   0.473189 -32.868967 -14.182636 -23.776637  -0.009250 -58.699141  -0.010585  -2.569231  -4.977571  27.983108 -52.040999  -8.831707  -8.511568  64.725883   0.002469   0.001571   6.194623  -1.529968   9.786911  -6.704853   0.003866   0.002956 -39.807924   0.962701   5.919175  37.041605   0.000623   0.006472  -7.258353   3.132315   3.365314  -9.797236  -0.000090   0.000251
 -1.928655   0.898657   5.248597  16.405744  13.139447 -10.216490  63.210847   5.114825   2.427460   0.036962  -1.434023  -2.221775   2.779223  -0.504961  -6.945385 -10.623449  43.001413  -9.006327 -39.480610  14.027072  16.899686  -0.002140  57.713618   0.000681  -4.273466   1.560718 -25.960904 -17.526822 -37.738774   0.467006 -32.955247 -14.156488 -23.840823  -0.008146 -58.879484  -0.009295  -2.543546  -4.977290  28.198945 -51.949336  -8.570726  -8.420612  65.090827   0.002345   0.001525   6.054493  -1.488195   9.714555  -6.482440   0.003484   0.002495 -39.594412   0.886383   5.827433  36.549617   0.000816   0.006286  -6.785004   3.283740   3.377469 -11.536075   0.000775   0.002359
 -1.928438   0.899512   5.248755  16.522012  13.088352 -10.111586  63.092213   4.996559   2.286462  -0.054158  -1.454624  -2.257222   2.775824  -0.640729  -6.891319 -10.632566  43.329291  -9.077470 -39.545592  14.294392  16.926144  -0.001952  57.477312   0.000778  -4.127744   1.573527 -26.112988 -17.589842 -37.798629   0.469241 -33.045439 -14.146063 -23.895392  -0.007107 -59.049099  -0.008117  -2.513390  -4.987615  28.405846 -51.880093  -8.318835  -8.389776  65.396415   0.002197   0.001529   5.923367  -1.449767   9.647023  -6.276040   0.003146   0.002180 -39.489765   0.845262   5.673754  36.159988   0.000767   0.005637  -6.557651   3.434078   3.325393 -11.336393   0.000682   0.001837
 -1.928310   0.900359   5.248922  16.638390  13.055475 -10.008685  63.002905   4.890406   2.154577  -0.121129  -1.473981  -2.289663   2.776980  -0.767438  -6.841344 -10.639649  43.640796  -9.145844 -39.607041  14.547456  16.952559  -0.001931  57.257904   0.000908  -3.984692   1.592347 -26.257795 -17.650907 -37.861349   0.472314 -33.131713 -14.141536 -23.947379  -0.006138 -59.209249  -0.007054  -2.479327  -5.007040  28.600692 -51.815029  -8.081911  -8.353180  65.675472   0.002024   0.001546   5.800593  -1.413774   9.583977  -6.087847   0.002816   0.001941 -39.404629   0.812852   5.522582  35.792849   0.000703   0.004992  -6.284880   3.575708   3.286191 -11.265248   0.000557   0.001460
 -1.928225   0.900870   5.249061  16.722330  12.973315  -9.961794  62.966956   4.768092   2.022931  -0.260999  -1.452216  -2.304341   2.759695  -0.883087  -6.848100 -10.729649  44.011914  -9.106604 -39.776219  14.849603  17.078186  -0.001357  56.907622   0.000040  -3.837657   1.619393 -26.321217 -17.756269 -37.960048   0.455956 -33.250780 -13.989295 -23.951355  -0.005115 -59.252645  -0.005866  -2.487352  -5.034193  28.690866 -51.725985  -7.842955  -8.223203  65.824273   0.001775   0.001434   5.629474  -1.452785   9.464244  -5.888400   0.002686   0.001729 -39.393988   0.785055   5.457655  35.625302   0.000595   0.004197  -6.141786   3.730694   3.320363 -11.203635   0.000417   0.001168
 -1.928148   0.901156   5.249194  16.788423  12.890665  -9.901886  62.948784   4.645924   1.893855  -0.403660  -1.426049  -2.315907   2.735457  -0.992785  -6.854927 -10.818692  44.376050  -9.063937 -39.941735  15.137702  17.202448  -0.000881  56.576709  -0.000674  -3.715192   1.613776 -26.406455 -17.869904 -38.053199   0.443686 -33.370122 -13.842006 -23.941490  -0.004232 -59.281451  -0.004836  -2.529197  -4.998804  28.807965 -51.653277  -7.609541  -8.111904  65.929200   0.001517   0.001270   5.467336  -1.489936   9.351808  -5.712499   0.002494   0.001529 -39.402434   0.761443   5.389204  35.536156   0.000494   0.003466  -6.056932   3.883785   3.345979 -11.150366   0.000313   0.000934
 -1.928096   0.901297   5.249333  16.843424  12.817553  -9.827357  62.943149   4.531196   1.771696  -0.538527  -1.400049  -2.325096   2.711754  -1.095584  -6.860889 -10.903101  44.720321  -9.023265 -40.098294  15.408372  17.320154  -0.000549  56.267943  -0.001184  -3.600074   1.604378 -26.495215 -17.984532 -38.141831   0.436161 -33.486517 -13.707095 -23.925845  -0.003508 -59.307511  -0.003988  -2.575973  -4.952705  28.936806 -51.598869  -7.385269  -8.022473  66.008714   0.001277   0.001101   5.315199  -1.524520   9.246645  -5.552282   0.002276   0.001352 -39.416559   0.741703   5.310820  35.486004   0.000407   0.002832  -6.007610   4.024256   3.363637 -11.101348   0.000235   0.000745
 -1.928107   0.901323   5.249515  16.900809  12.776448  -9.736112  62.953123   4.470958   1.648676  -0.661844  -1.320532  -2.341745   2.686191  -1.195531  -6.855592 -10.862952  44.675312  -9.092164 -40.261534  15.743410  17.476811  -0.000609  56.000801  -0.000938  -3.455864   1.673916 -26.517771 -18.099281 -38.276521   0.431955 -33.605148 -13.614293 -23.927291  -0.002963 -59.340914  -0.003331  -2.605707  -4.937446  29.030725 -51.564318  -7.169063  -7.961363  66.073273   0.001069   0.000955   5.172529  -1.556800   9.148309  -5.407588   0.002054   0.001214 -39.438272   0.725625   5.208696  35.454350   0.000332   0.002297  -5.978070   4.148286   3.375010 -11.057257   0.000176   0.000596
 -1.928185   0.901280   5.249733  16.953913  12.757064  -9.640589  62.969421   4.405475   1.534152  -0.772618  -1.265144  -2.354049   2.666478  -1.283634  -6.857589 -10.849834  44.637559  -9.126188 -40.402241  16.010740  17.598659  -0.000570  55.743867  -0.000782  -3.319452   1.729299 -26.543601 -18.208429 -38.373535   0.432706 -33.713816 -13.513577 -23.913701  -0.002504 -59.369231  -0.002782  -2.633822  -4.922782  29.134614 -51.539411  -6.965153  -7.906588  66.123463   0.000887   0.000827   5.039124  -1.586765   9.056395  -5.274502   0.001838   0.001112 -39.459789   0.708154   5.100791  35.436135   0.000270   0.001853  -5.965777   4.255552   3.383026 -11.014353   0.000130   0.000477
 -1.928328   0.901193   5.249984  17.003115  12.752981  -9.543713  62.992432   4.334836   1.428621  -0.871307  -1.223251  -2.362551   2.649133  -1.365955  -6.861574 -10.849199  44.606478  -9.141605 -40.531276  16.239623  17.703613  -0.000515  55.497144  -0.000674  -3.202339   1.752926 -26.594073 -18.312134 -38.447105   0.434053 -33.814488 -13.409602 -23.892333  -0.002110 -59.392634  -0.002319  -2.666116  -4.898540  29.255047 -51.524351  -6.774358  -7.852657  66.163061   0.000731   0.000714   4.914379  -1.614486   8.970548  -5.152347   0.001629   0.001032 -39.480184   0.689418   4.992008  35.427003   0.000218   0.001489  -5.965367   4.349536   3.389021 -10.974154   0.000094   0.000382
 -1.928479   0.900977   5.250242  17.036462  12.672848  -9.519692  63.076841   4.277469   1.332784  -1.051041  -1.144064  -2.379802   2.573279  -1.450068  -6.904657 -10.894034  44.577287  -9.081800 -40.727081  16.511242  17.891299  -0.000228  55.310637  -0.000927  -3.149146   1.729302 -26.626755 -18.393829 -38.515864   0.430075 -34.016147 -13.196845 -23.845572  -0.001854 -59.418899  -0.002008  -2.741752  -4.848500  29.308389 -51.452553  -6.556459  -7.671948  65.917252   0.000378   0.000180   4.736417  -1.697086   8.789848  -5.033910   0.001582   0.000995 -39.545948   0.689309   5.000492  35.530909   0.000148   0.001128  -6.066195   4.434642   3.409667 -10.893665   0.000044   0.000310
 -1.928616   0.900637   5.250498  17.059207  12.586478  -9.484036  63.164210   4.213573   1.241047  -1.229006  -1.068171  -2.394111   2.495374  -1.530189  -6.945070 -10.937961  44.553185  -9.020125 -40.914233  16.768111  18.071880   0.000015  55.141337  -0.001122  -3.094770   1.722474 -26.678105 -18.482464 -38.573903   0.425425 -34.211418 -12.991628 -23.790066  -0.001603 -59.438070  -0.001712  -2.831531  -4.773882  29.402811 -51.398532  -6.336998  -7.515393  65.613700   0.000065  -0.000275   4.565552  -1.774905   8.620084  -4.935290   0.001481   0.000927 -39.620383   0.696178   5.004970  35.678146   0.000080   0.000808  -6.202278   4.523233   3.422417 -10.805802   0.000009   0.000254
 -1.928765   0.900224   5.250767  17.070965  12.507118  -9.436185  63.254240   4.149829   1.157897  -1.395988  -0.999285  -2.403064   2.422068  -1.605337  -6.982323 -10.981293  44.533135  -8.959925 -41.090077  17.005616  18.240216   0.000208  54.983173  -0.001266  -3.041219   1.719206 -26.735791 -18.571502 -38.626567   0.423649 -34.397248 -12.800443 -23.732168  -0.001384 -59.455138  -0.001457  -2.921370  -4.696143  29.512165 -51.364420  -6.124019  -7.385944  65.302105  -0.000166  -0.000604   4.404562  -1.847400   8.461266  -4.846792   0.001361   0.000851 -39.691461   0.707891   5.000803  35.845450   0.000020   0.000545  -6.354680   4.607165   3.429172 -10.717574  -0.000016   0.000210
 -1.928945   0.899777   5.251059  17.073535  12.437213  -9.380310  63.346507   4.088560   1.084225  -1.549834  -0.936409  -2.406602   2.353941  -1.675547  -7.016697 -11.023286  44.516402  -8.901584 -41.254997  17.225140  18.397295   0.000350  54.834961  -0.001361  -2.990417   1.714986 -26.796147 -18.658353 -38.675606   0.423969 -34.572924 -12.623246 -23.674593  -0.001197 -59.471217  -0.001239  -3.007219  -4.622563  29.624970 -51.347787  -5.920074  -7.275679  64.997214  -0.000320  -0.000832   4.253521  -1.914841   8.312788  -4.766554   0.001233   0.000776 -39.755641   0.721747   4.991148  36.021232  -0.000033   0.000339  -6.512672   4.684323   3.432440 -10.634050  -0.000032   0.000174
